<?xml version="1.0" encoding="UTF-8" standalone="no"?>
<svg
   xmlns:dc="http://purl.org/dc/elements/1.1/"
   xmlns:cc="http://creativecommons.org/ns#"
   xmlns:rdf="http://www.w3.org/1999/02/22-rdf-syntax-ns#"
   xmlns:svg="http://www.w3.org/2000/svg"
   xmlns="http://www.w3.org/2000/svg"
   xmlns:sodipodi="http://sodipodi.sourceforge.net/DTD/sodipodi-0.dtd"
   xmlns:inkscape="http://www.inkscape.org/namespaces/inkscape"
   width="17.894274mm"
   height="17.619608mm"
   viewBox="0 0 17.894274 17.619608"
   version="1.1"
   id="svg8"
   inkscape:version="1.0.2-2 (e86c870879, 2021-01-15)"
   sodipodi:docname="remove_sweep.svg">
  <defs
     id="defs2">
    <inkscape:path-effect
       effect="bspline"
       id="path-effect4638"
       is_visible="true"
       weight="33.333333"
       steps="2"
       helper_size="0"
       apply_no_weight="true"
       apply_with_weight="true"
       only_selected="false" />
    <inkscape:path-effect
       effect="bspline"
       id="path-effect4548"
       is_visible="true"
       weight="33.333333"
       steps="2"
       helper_size="0"
       apply_no_weight="true"
       apply_with_weight="true"
       only_selected="false" />
    <inkscape:path-effect
       effect="bspline"
       id="path-effect4528"
       is_visible="true"
       weight="33.333333"
       steps="2"
       helper_size="0"
       apply_no_weight="true"
       apply_with_weight="true"
       only_selected="false" />
    <inkscape:path-effect
       effect="bspline"
       id="path-effect4524"
       is_visible="true"
       weight="33.333333"
       steps="2"
       helper_size="0"
       apply_no_weight="true"
       apply_with_weight="true"
       only_selected="false" />
    <inkscape:path-effect
       effect="bspline"
       id="path-effect4520"
       is_visible="true"
       weight="33.333333"
       steps="2"
       helper_size="0"
       apply_no_weight="true"
       apply_with_weight="true"
       only_selected="false" />
    <inkscape:path-effect
       effect="bspline"
       id="path-effect4638-8"
       is_visible="true"
       weight="33.333333"
       steps="2"
       helper_size="0"
       apply_no_weight="true"
       apply_with_weight="true"
       only_selected="false" />
  </defs>
  <sodipodi:namedview
     id="base"
     pagecolor="#000000"
     bordercolor="#666666"
     borderopacity="1.0"
     inkscape:pageopacity="0"
     inkscape:pageshadow="2"
     inkscape:zoom="4.086979"
     inkscape:cx="13.022054"
     inkscape:cy="26.226688"
     inkscape:document-units="mm"
     inkscape:current-layer="g4666"
     showgrid="false"
     inkscape:snap-text-baseline="false"
     inkscape:window-width="2560"
     inkscape:window-height="1377"
     inkscape:window-x="-8"
     inkscape:window-y="-8"
     inkscape:window-maximized="1"
     fit-margin-top="0"
     fit-margin-left="0"
     fit-margin-right="0"
     fit-margin-bottom="0"
     inkscape:document-rotation="0" />
  <metadata
     id="metadata5">
    <rdf:RDF>
      <cc:Work
         rdf:about="">
        <dc:format>image/svg+xml</dc:format>
        <dc:type
           rdf:resource="http://purl.org/dc/dcmitype/StillImage" />
        <dc:title />
      </cc:Work>
    </rdf:RDF>
  </metadata>
  <g
     inkscape:label="Layer 1"
     inkscape:groupmode="layer"
     id="layer1"
     transform="translate(-49.302002,-78.867188)">
    <flowRoot
       xml:space="preserve"
       id="flowRoot4532"
       style="font-style:normal;font-weight:normal;font-size:40px;line-height:1.25;font-family:sans-serif;letter-spacing:0px;word-spacing:0px;fill:#000000;fill-opacity:1;stroke:none"
       transform="scale(0.26458333)"><flowRegion
         id="flowRegion4534"><rect
           id="rect4536"
           width="39.14872"
           height="45.510387"
           x="-1965.2657"
           y="-60.261047" /></flowRegion><flowPara
         id="flowPara4538" /></flowRoot>
    <path
       style="opacity:1;vector-effect:none;fill:none;fill-opacity:1;stroke:#ffffff;stroke-width:0.83428812;stroke-linecap:round;stroke-linejoin:bevel;stroke-miterlimit:4;stroke-dasharray:none;stroke-dashoffset:0;stroke-opacity:1"
       id="path4544"
       sodipodi:type="arc"
       sodipodi:cx="58.249142"
       sodipodi:cy="87.676994"
       sodipodi:rx="8.5299854"
       sodipodi:ry="8.3926554"
       sodipodi:start="1.5838514"
       sodipodi:end="1.5761493"
       sodipodi:open="true"
       d="m 58.137785,96.068935 a 8.5299854,8.3926554 0 0 1 -8.4181,-8.485345 8.5299854,8.3926554 0 0 1 8.607966,-8.298896 8.5299854,8.3926554 0 0 1 8.45125,8.453386 8.5299854,8.3926554 0 0 1 -8.57542,8.331449" />
    <text
       xml:space="preserve"
       style="font-style:normal;font-weight:normal;font-size:10.58333302px;line-height:1.25;font-family:sans-serif;letter-spacing:0px;word-spacing:0px;fill:#000000;fill-opacity:1;stroke:none;stroke-width:0.26458332"
       x="61.478191"
       y="88.349518"
       id="text4552"><tspan
         sodipodi:role="line"
         id="tspan4550"
         x="61.478191"
         y="97.713287"
         style="stroke-width:0.26458332" /></text>
    <g
       id="g4666">
      <g
         style="stroke-width:0.5;stroke-miterlimit:4;stroke-dasharray:none"
         transform="matrix(0.88807329,0,0,0.88807329,28.17951,-0.84616312)"
         id="g4660">
        <path
           transform="matrix(0,-1,-1,0,137.26198,137.26198)"
           style="opacity:1;vector-effect:none;fill:none;fill-opacity:1;stroke:#ffffff;stroke-width:0.5;stroke-linecap:round;stroke-linejoin:miter;stroke-miterlimit:4;stroke-dasharray:none;stroke-dashoffset:0;stroke-opacity:1"
           d="m 39.963113,95.30758 c 0,1.327261 0,2.654787 0,3.98258"
           id="path4636-5"
           inkscape:connector-curvature="0"
           inkscape:path-effect="#path-effect4638-8"
           inkscape:original-d="m 39.963113,95.30758 c 2.65e-4,1.327261 2.65e-4,2.654787 0,3.98258" />
      </g>
      <path
         d="m 59.385096,84.152049 c -0.401987,0.114903 -0.525686,0.20543 -1.248121,0.927771 l -0.607435,0.609692 -0.629535,-0.627394 c -0.611936,-0.609693 -0.634036,-0.629541 -0.759882,-0.664943 -0.165646,-0.04856 -0.322491,-0.03536 -0.468288,0.03975 -0.159099,0.08394 -4.340649,4.269956 -4.402548,4.411354 -0.0619,0.134789 -0.0619,0.373347 0,0.508078 0.06631,0.150268 4.579242,4.665402 4.73609,4.740502 0.145797,0.06845 0.373343,0.07303 0.519139,0.0071 0.139037,-0.06178 4.327346,-4.241311 4.413495,-4.404704 0.07948,-0.150269 0.0839,-0.393177 0.01107,-0.541227 -0.03315,-0.06633 -0.247393,-0.295997 -0.658285,-0.706891 l -0.607435,-0.605275 0.649487,-0.653895 c 0.629536,-0.63394 0.649386,-0.656038 0.748832,-0.854924 0.137008,-0.278291 0.178947,-0.47269 0.165646,-0.797437 -0.0089,-0.216498 -0.02211,-0.287198 -0.07735,-0.437395 -0.165645,-0.439525 -0.499187,-0.768668 -0.934428,-0.91672 -0.183345,-0.06177 -0.678135,-0.08164 -0.85043,-0.03308 z m 0.739932,0.667177 c 0.459491,0.216497 0.638435,0.759889 0.40424,1.234816 -0.04194,0.08393 -0.265094,0.320347 -0.892376,0.949888 l -0.837233,0.83937 0.790781,0.790787 0.788633,0.788625 -0.514637,0.512492 -0.512489,0.514639 -2.213448,-2.215602 -2.215598,-2.21335 0.514738,-0.512474 0.512489,-0.514641 0.790781,0.790771 0.788631,0.78864 0.82833,-0.828338 c 0.996226,-0.996216 1.016177,-1.009518 1.435865,-0.998471 0.15685,0.0071 0.211996,0.01759 0.331293,0.07284 z m -6.32205,3.381971 -1.431469,1.43136 -0.265095,-0.265079 -0.265093,-0.265098 1.429217,-1.429212 1.431468,-1.431485 0.265094,0.265097 0.265094,0.265097 z m 1.941704,-0.916827 0.271746,0.27175 -1.42932,1.429214 -1.431366,1.431465 -0.280543,-0.280546 -0.282794,-0.2828 1.418166,-1.418164 c 0.781982,-0.78197 1.429218,-1.420414 1.442519,-1.420414 0.01107,0 0.143547,0.121591 0.291592,0.269495 z m 0.779729,0.779827 0.276147,0.276146 -1.431468,1.431361 -1.429216,1.429231 -0.280545,-0.282693 -0.282794,-0.280546 1.424818,-1.424814 c 0.784232,-0.784243 1.429216,-1.424833 1.435866,-1.424833 0.0067,0 0.134744,0.12369 0.287192,0.276148 z m 0.795286,0.795186 0.276143,0.276148 -1.431469,1.429212 -1.429216,1.431465 -0.276143,-0.276146 c -0.152451,-0.15238 -0.276145,-0.284945 -0.276145,-0.298249 0,-0.02868 2.809835,-2.838577 2.838585,-2.838577 0.01335,1.05e-4 0.145797,0.123879 0.298245,0.276147 z m 1.038173,1.060372 c 0,0.0106 -0.638437,0.660439 -1.418167,1.440262 l -1.420417,1.420416 -0.280544,-0.280529 -0.282794,-0.282692 1.429216,-1.429213 1.431468,-1.431591 0.269494,0.269496 c 0.150302,0.150269 0.271744,0.280547 0.271744,0.293851 z m 0.514737,0.492645 0.258446,0.258446 -1.431468,1.431361 -1.429216,1.429214 -0.265095,-0.265098 -0.265094,-0.265098 1.424818,-1.424814 c 0.784232,-0.784119 1.429216,-1.42471 1.435867,-1.42471 0.0067,0 0.128101,0.117017 0.271742,0.260699 z"
         id="path924"
         style="fill:#ffffff;fill-opacity:1;stroke:#000000;stroke-width:0.00102313;stroke-opacity:1" />
    </g>
  </g>
</svg>
